<?xml version="1.0" encoding="utf-8"?>
<!-- Generator: Adobe Illustrator 24.3.0, SVG Export Plug-In . SVG Version: 6.00 Build 0)  -->
<svg version="1.1" id="Layer_1" xmlns="http://www.w3.org/2000/svg" xmlns:xlink="http://www.w3.org/1999/xlink" x="0px" y="0px"
	 viewBox="0 0 986.55 442.72" style="enable-background:new 0 0 986.55 442.72;" xml:space="preserve">
<style type="text/css">
	.st0{fill:#6A2C1F;}
	.st1{fill:#60150F;}
	.st2{fill:#FF6414;}
	.st3{fill:#FB6312;}
	.st4{fill:#6F2215;}
</style>
<g>
	<path class="st0" d="M164.61,170c-3.28,2.52-6.28,5.35-9.04,8.42c-6.76,7.53-12.03,16.04-16.41,25.12
		c-5.48,11.37-9.54,23.22-11.79,35.65c-0.7,3.86-1.07,7.79-1.39,11.7c-0.46,5.8,0.84,11.33,3.09,16.63
		c7.7,18.15,19.49,32.95,36.17,43.65c6.28,4.03,13.12,6.86,20.53,7.97c16.19,2.43,30.17-1.74,41.24-14.26
		c5.31-6,9.48-12.76,13.03-19.89c4.48-9.03,8.72-18.18,13.07-27.28c1.97-4.11,3.98-8.21,5.97-12.31c0.13-0.27,0.28-0.52,0.35-0.66
		c0,1.69,0.11,3.48-0.02,5.26c-0.41,5.57-0.76,11.14-1.42,16.68c-2.36,19.78-7.12,38.89-16.17,56.77
		c-4.94,9.76-11.07,18.68-19.06,26.23c-7.92,7.48-17.01,12.9-27.67,15.48c-6.15,1.48-12.37,1.89-18.67,1.31
		c-24.84-2.28-47.4-10.94-68.23-24.42c-14.16-9.16-26.89-20.05-38.78-31.95c-2.7-2.71-5.32-5.49-7.99-8.24
		c-0.31-0.31-0.47-0.58-0.28-1.07c8.42-22.06,17.99-43.58,29.9-64c7.1-12.16,14.97-23.79,24.19-34.45
		c7.68-8.88,16.1-16.95,26.02-23.34c5.81-3.74,11.93-6.81,18.7-8.42c1.51-0.36,3.06-0.56,4.59-0.83
		C164.57,169.84,164.59,169.92,164.61,170z"/>
	<path class="st1" d="M174.4,281.54c1.37-1.27,2.75-2.52,4.11-3.8c8.93-8.38,16.82-17.62,23.02-28.23c4.63-7.94,8.08-16.34,9.8-25.4
		c2.04-10.7,1.35-21.22-1.96-31.6c-3.08-9.68-7.25-18.82-13.4-26.96c-7.78-10.31-17.65-17.69-30.16-21.35
		c-0.36-0.1-0.71-0.24-1.03-0.45c1.53,0.13,3.06,0.31,4.59,0.37c10.52,0.45,20.47-1.52,29.5-7.17c8.08-5.06,13.63-12.27,17.38-20.94
		c1-2.31,1.81-4.71,2.7-7.03c18.64,16.07,38.32,30.9,58.24,45.19c-3.61,6.27-7.33,12.59-10.92,18.99
		c-11.36,20.29-22.65,40.62-34,60.91c-4.07,7.27-8.21,14.5-13.16,21.23c-4.87,6.63-10.39,12.6-17.25,17.24
		c-7,4.74-14.72,7.58-23.09,8.69c-1.44,0.19-2.88,0.33-4.32,0.49C174.44,281.67,174.42,281.61,174.4,281.54z"/>
	<path class="st2" d="M172.89,131.61c-17.07-0.17-30.84-11.64-34.46-26.93c-4.32-18.21,6.07-36.17,24.04-41.68
		c19.25-5.9,39.5,5.17,44.73,24.41c4.88,17.96-5.18,36.43-23.05,42.38C180.49,131,176.73,131.53,172.89,131.61z"/>
	<path class="st1" d="M123.94,93.83c0.1,2.41,0.08,4.83,0.33,7.22c0.85,7.84,3.86,14.84,8.47,21.19
		c4.56,6.28,10.33,11.23,16.82,15.4c0.24,0.16,0.48,0.33,0.89,0.6c-2.58,0.3-4.97,0.57-7.37,0.84c-7.08,0.8-14.14,1.68-20.93,4
		c-9.4,3.21-16.69,9.16-22.42,17.16c-5.07,7.07-8.69,14.89-11.74,22.99c-3.1,8.24-5.5,16.69-7.6,25.23
		c-0.06,0.26-0.14,0.53-0.31,0.79c0-0.27,0-0.54,0-0.82c0.1-8.17,0.39-16.33,1.14-24.48c1.43-15.62,4.44-30.88,10.39-45.48
		c7.04-17.28,17.65-32,31.75-44.2c0.17-0.14,0.34-0.28,0.51-0.42C123.91,93.83,123.97,93.82,123.94,93.83z"/>
</g>
<rect x="297.11" y="67.32" class="st3" width="4.34" height="306.51"/>
<g>
	<g transform="translate(867.632155, 737.531925)">
		<g>
			<path class="st4" d="M-521.66-568.9h26.24l-7.45-22.79c-0.52-1.63-1.09-3.44-1.72-5.45c-0.63-2-1.3-4.21-2-6.62
				c-0.7-2.41-1.24-4.21-1.61-5.39h-0.67c-0.22,0.74-2,6.56-5.34,17.45L-521.66-568.9z M-548.34-535.32l31.8-87.94h16.12
				l31.69,87.94h-15.57l-7.23-21.79h-34.02l-7.23,21.79H-548.34z"/>
		</g>
	</g>
	<g transform="translate(1382.823465, 737.531925)">
		<g>
			<path class="st4" d="M-980.37-567.34c0-10.3,2.76-18.57,8.28-24.79c5.52-6.23,12.66-9.34,21.4-9.34c6.37,0,11.75,1.93,16.12,5.78
				c4.37,3.85,7.12,8.26,8.23,13.23l-12.01,3.34c-0.89-2.82-2.41-5.24-4.56-7.28c-2.15-2.04-4.71-3.06-7.67-3.06
				c-4.82,0-8.58,2.11-11.28,6.34c-2.71,4.22-4.06,9.49-4.06,15.78c0,6.97,1.44,12.38,4.34,16.23c2.89,3.85,6.56,5.78,11.01,5.78
				c3.26,0,6.13-1.13,8.62-3.39c2.48-2.26,4.21-4.84,5.17-7.73l12.01,3.45c-1.41,5.19-4.49,9.77-9.23,13.73
				c-4.74,3.96-10.3,5.95-16.68,5.95c-8.75,0-15.88-3.09-21.4-9.28C-977.61-548.79-980.37-557.04-980.37-567.34z"/>
		</g>
	</g>
	<g transform="translate(1786.681061, 737.531925)">
		<g>
			<path class="st4" d="M-1322.52-567.34c0-10.3,2.76-18.57,8.28-24.79c5.52-6.23,12.66-9.34,21.4-9.34
				c6.37,0,11.75,1.93,16.12,5.78c4.37,3.85,7.12,8.26,8.23,13.23l-12.01,3.34c-0.89-2.82-2.41-5.24-4.56-7.28
				c-2.15-2.04-4.71-3.06-7.67-3.06c-4.82,0-8.58,2.11-11.28,6.34c-2.71,4.22-4.06,9.49-4.06,15.78c0,6.97,1.44,12.38,4.34,16.23
				c2.89,3.85,6.56,5.78,11.01,5.78c3.26,0,6.13-1.13,8.62-3.39c2.48-2.26,4.21-4.84,5.17-7.73l12.01,3.45
				c-1.41,5.19-4.49,9.77-9.23,13.73c-4.74,3.96-10.3,5.95-16.68,5.95c-8.75,0-15.88-3.09-21.4-9.28
				C-1319.76-548.79-1322.52-557.04-1322.52-567.34z"/>
		</g>
	</g>
	<g transform="translate(2190.538657, 737.531925)">
		<g>
			<path class="st4" d="M-1664.67-567.67c0-10.3,2.83-18.51,8.5-24.63c5.67-6.11,12.8-9.17,21.4-9.17c8.45,0,15.42,3.08,20.9,9.23
				c5.49,6.15,8.23,14.16,8.23,24.01c0,1.93-0.11,3.82-0.33,5.67h-44.47c0,4.89,1.46,9.1,4.39,12.62c2.93,3.52,6.95,5.28,12.06,5.28
				c3.56,0,6.69-0.87,9.39-2.61c2.71-1.74,4.76-3.99,6.17-6.73l11.79,4c-2.08,4.74-5.45,8.71-10.12,11.9
				c-4.67,3.19-10.49,4.78-17.46,4.78c-8.97,0-16.29-3.11-21.96-9.34C-1661.84-548.89-1664.67-557.22-1664.67-567.67z
				 M-1650.22-572.46h30.24c0-4.89-1.3-9.06-3.89-12.51c-2.59-3.45-6.23-5.17-10.9-5.17c-4.67,0-8.39,1.76-11.17,5.28
				C-1648.72-581.33-1650.15-577.2-1650.22-572.46z"/>
		</g>
	</g>
	<g transform="translate(2627.869131, 737.531925)">
		<g>
			<path class="st4" d="M-2036.3-548.66l10.12-5.89c4.45,6.52,10.23,9.78,17.34,9.78c3.48,0,6.24-0.69,8.28-2.06
				c2.04-1.37,3.06-3.21,3.06-5.5c0-1.85-0.83-3.48-2.5-4.89c-1.67-1.41-3.43-2.46-5.28-3.17c-1.85-0.7-4.63-1.65-8.34-2.84
				c-0.67-0.22-1.15-0.37-1.44-0.45c-2.67-0.89-4.91-1.76-6.73-2.61c-1.82-0.85-3.72-2-5.72-3.45c-2-1.44-3.52-3.26-4.56-5.45
				c-1.04-2.19-1.56-4.73-1.56-7.62c0-5.63,2.37-10.15,7.11-13.56c4.74-3.41,10.64-5.12,17.68-5.12c5.26,0,10.23,1.39,14.9,4.17
				c4.67,2.78,8.15,6.32,10.45,10.62l-9.34,5.67c-4.37-6-9.67-9.01-15.9-9.01c-3.41,0-6.02,0.69-7.84,2.06
				c-1.82,1.37-2.72,3.17-2.72,5.39c0,1.85,0.8,3.5,2.39,4.95c1.59,1.45,3.24,2.5,4.95,3.17c1.7,0.67,4.11,1.52,7.23,2.56
				c0.81,0.22,1.41,0.41,1.78,0.56c13.19,4.22,19.79,10.6,19.79,19.12c0,5.26-2.21,9.73-6.62,13.4c-4.41,3.67-10.65,5.5-18.73,5.5
				c-6.23,0-11.77-1.37-16.62-4.11C-2029.98-540.18-2033.7-543.92-2036.3-548.66z"/>
		</g>
	</g>
	<g transform="translate(3016.445631, 737.531925)">
		<g>
			<path class="st4" d="M-2365.5-548.66l10.12-5.89c4.45,6.52,10.23,9.78,17.34,9.78c3.48,0,6.24-0.69,8.28-2.06
				c2.04-1.37,3.06-3.21,3.06-5.5c0-1.85-0.83-3.48-2.5-4.89c-1.67-1.41-3.43-2.46-5.28-3.17c-1.85-0.7-4.63-1.65-8.34-2.84
				c-0.67-0.22-1.15-0.37-1.44-0.45c-2.67-0.89-4.91-1.76-6.73-2.61c-1.82-0.85-3.72-2-5.72-3.45c-2-1.44-3.52-3.26-4.56-5.45
				c-1.04-2.19-1.56-4.73-1.56-7.62c0-5.63,2.37-10.15,7.11-13.56c4.74-3.41,10.64-5.12,17.68-5.12c5.26,0,10.23,1.39,14.9,4.17
				c4.67,2.78,8.15,6.32,10.45,10.62l-9.34,5.67c-4.37-6-9.67-9.01-15.9-9.01c-3.41,0-6.02,0.69-7.84,2.06
				c-1.82,1.37-2.72,3.17-2.72,5.39c0,1.85,0.8,3.5,2.39,4.95c1.59,1.45,3.24,2.5,4.95,3.17c1.7,0.67,4.11,1.52,7.23,2.56
				c0.81,0.22,1.41,0.41,1.78,0.56c13.19,4.22,19.79,10.6,19.79,19.12c0,5.26-2.21,9.73-6.62,13.4c-4.41,3.67-10.65,5.5-18.73,5.5
				c-6.23,0-11.77-1.37-16.62-4.11C-2359.19-540.18-2362.91-543.92-2365.5-548.66z"/>
		</g>
	</g>
</g>
<g>
	<g transform="translate(867.632155, 1780.670565)">
		<g>
			<path class="st4" d="M-540.52-1450.52v-89.5h14.93v76.83h40.51v12.67H-540.52z"/>
		</g>
	</g>
	<g transform="translate(1296.230573, 1780.670565)">
		<g>
			<path class="st4" d="M-903.95-1525.54v-15.73h15.39v15.73H-903.95z M-903.27-1450.52v-65.29h14.14v65.29H-903.27z"/>
		</g>
	</g>
	<g transform="translate(1505.79992, 1780.670565)">
		<g>
			<path class="st4" d="M-1088.51-1515.81h15.62l9.84,33.49c0.6,2.26,1.49,5.7,2.66,10.3c1.17,4.6,1.98,7.73,2.43,9.39h0.23
				c0.45-1.73,1.32-4.9,2.6-9.5c1.28-4.6,2.23-8,2.83-10.19l9.73-33.49h15.62l-22.63,65.29h-16.3L-1088.51-1515.81z"/>
		</g>
	</g>
	<g transform="translate(1913.295871, 1780.670565)">
		<g>
			<path class="st4" d="M-1429.58-1483.45c0-10.49,2.88-18.84,8.65-25.06c5.77-6.22,13.03-9.33,21.78-9.33
				c8.6,0,15.69,3.13,21.27,9.39c5.58,6.26,8.38,14.41,8.38,24.44c0,1.96-0.11,3.89-0.34,5.77h-45.26c0,4.98,1.49,9.26,4.47,12.84
				c2.98,3.58,7.07,5.37,12.28,5.37c3.62,0,6.81-0.89,9.56-2.66c2.75-1.77,4.85-4.06,6.28-6.85l12,4.07
				c-2.11,4.83-5.54,8.86-10.3,12.11c-4.75,3.24-10.67,4.86-17.77,4.86c-9.13,0-16.58-3.17-22.35-9.5
				C-1426.7-1464.33-1429.58-1472.81-1429.58-1483.45z M-1414.87-1488.32h30.78c0-4.98-1.32-9.22-3.96-12.73
				c-2.64-3.51-6.34-5.26-11.09-5.26c-4.75,0-8.54,1.79-11.37,5.38C-1413.35-1497.35-1414.8-1493.14-1414.87-1488.32z"/>
		</g>
	</g>
	<g transform="translate(2350.626345, 1780.670565)">
		<g>
			<path class="st4" d="M-1793.93-1450.52v-92.45h14.26v92.45H-1793.93z"/>
		</g>
	</g>
	<g transform="translate(2558.012675, 1780.670565)">
		<g>
			<path class="st4" d="M-1969.53-1525.54v-15.73h15.39v15.73H-1969.53z M-1968.84-1450.52v-65.29h14.14v65.29H-1968.84z"/>
		</g>
	</g>
	<g transform="translate(2767.582021, 1780.670565)">
		<g>
			<path class="st4" d="M-2146.62-1450.52v-92.45h14.14v33.83h0.34c1.73-2.49,4.13-4.56,7.18-6.22c3.05-1.66,6.28-2.49,9.67-2.49
				c6.26,0,11.47,2.02,15.62,6.05c4.15,4.04,6.22,10.47,6.22,19.29v41.98h-14.26v-40.17c0-9.96-3.39-14.93-10.18-14.93
				c-4.15,0-7.62,1.77-10.41,5.32c-2.79,3.54-4.19,7.69-4.19,12.44v37.34H-2146.62z"/>
		</g>
	</g>
	<g transform="translate(3209.278527, 1780.670565)">
		<g>
			<path class="st4" d="M-2509.34-1483.11c0,7.55,1.55,13.17,4.64,16.86c3.09,3.7,6.71,5.54,10.86,5.54c4.07,0,7.66-1.85,10.75-5.54
				c3.09-3.7,4.64-9.32,4.64-16.86c0-7.69-1.55-13.37-4.64-17.03c-3.09-3.66-6.68-5.49-10.75-5.49c-4.07,0-7.68,1.83-10.81,5.49
				C-2507.77-1496.48-2509.34-1490.81-2509.34-1483.11z M-2524.04-1483.11c0-9.73,2.56-17.95,7.69-24.67
				c5.13-6.71,12.64-10.07,22.52-10.07c9.81,0,17.27,3.36,22.4,10.07c5.13,6.71,7.69,14.94,7.69,24.67c0,3.02-0.28,6.04-0.85,9.05
				c-0.57,3.02-1.56,6.09-3,9.22c-1.43,3.13-3.24,5.88-5.43,8.26c-2.19,2.38-5.07,4.32-8.66,5.83c-3.58,1.51-7.64,2.26-12.16,2.26
				c-4.45,0-8.47-0.74-12.05-2.21c-3.58-1.47-6.49-3.36-8.71-5.66c-2.23-2.3-4.07-5.02-5.54-8.15c-1.47-3.13-2.49-6.22-3.05-9.28
				C-2523.76-1476.83-2524.04-1479.94-2524.04-1483.11z"/>
		</g>
	</g>
	<g transform="translate(3648.792017, 1780.670565)">
		<g>
			<path class="st4" d="M-2880.51-1483.11c0,7.55,1.55,13.17,4.64,16.86c3.09,3.7,6.71,5.54,10.86,5.54c4.07,0,7.66-1.85,10.75-5.54
				c3.09-3.7,4.64-9.32,4.64-16.86c0-7.69-1.55-13.37-4.64-17.03c-3.09-3.66-6.68-5.49-10.75-5.49c-4.07,0-7.68,1.83-10.81,5.49
				C-2878.94-1496.48-2880.51-1490.81-2880.51-1483.11z M-2895.22-1483.11c0-9.73,2.56-17.95,7.69-24.67
				c5.13-6.71,12.64-10.07,22.52-10.07c9.81,0,17.27,3.36,22.4,10.07c5.13,6.71,7.69,14.94,7.69,24.67c0,3.02-0.28,6.04-0.85,9.05
				c-0.57,3.02-1.56,6.09-3,9.22c-1.43,3.13-3.24,5.88-5.43,8.26c-2.19,2.38-5.07,4.32-8.66,5.83c-3.58,1.51-7.64,2.26-12.16,2.26
				c-4.45,0-8.47-0.74-12.05-2.21c-3.58-1.47-6.49-3.36-8.71-5.66c-2.23-2.3-4.07-5.02-5.54-8.15c-1.47-3.13-2.49-6.22-3.05-9.28
				C-2894.93-1476.83-2895.22-1479.94-2895.22-1483.11z"/>
		</g>
	</g>
	<g transform="translate(4088.305507, 1780.670565)">
		<g>
			<path class="st4" d="M-3266.39-1483.22c0-10.71,2.62-19.16,7.86-25.35c5.24-6.19,11.9-9.28,19.97-9.28
				c3.85,0,7.18,0.92,10.01,2.77c2.83,1.85,5,4.02,6.51,6.51v-34.4h14.25v92.45h-13.8v-8.49c-1.36,2.87-3.6,5.34-6.73,7.41
				c-3.13,2.07-6.58,3.11-10.35,3.11c-3.4,0-6.68-0.64-9.84-1.92c-3.17-1.28-6.13-3.24-8.88-5.88c-2.75-2.64-4.94-6.28-6.56-10.92
				C-3265.58-1471.85-3266.39-1477.19-3266.39-1483.22z M-3251.68-1483.22c0,7.09,1.38,12.62,4.13,16.58
				c2.75,3.96,6.39,5.94,10.92,5.94c4.37,0,7.94-2.02,10.69-6.05c2.75-4.04,4.13-9.52,4.13-16.46c0-6.71-1.34-12.13-4.02-16.24
				c-2.68-4.11-6.28-6.17-10.8-6.17c-4.75,0-8.45,2.04-11.09,6.11C-3250.36-1495.44-3251.68-1490.01-3251.68-1483.22z"/>
		</g>
	</g>
	<g transform="translate(4546.010779, 1780.670565)">
		<g>
			<path class="st4" d="M-3654.05-1464.1l10.3-6c4.53,6.64,10.41,9.96,17.65,9.96c3.55,0,6.35-0.7,8.43-2.09
				c2.07-1.4,3.11-3.26,3.11-5.6c0-1.89-0.85-3.55-2.55-4.98c-1.7-1.43-3.49-2.51-5.37-3.22c-1.89-0.72-4.71-1.68-8.49-2.89
				c-0.68-0.23-1.17-0.38-1.47-0.45c-2.72-0.91-5-1.79-6.85-2.66c-1.85-0.87-3.79-2.04-5.83-3.51c-2.04-1.47-3.58-3.32-4.64-5.54
				c-1.06-2.23-1.58-4.81-1.58-7.75c0-5.73,2.41-10.33,7.24-13.8c4.83-3.47,10.83-5.21,17.99-5.21c5.36,0,10.41,1.42,15.16,4.24
				c4.75,2.83,8.3,6.43,10.63,10.8l-9.5,5.77c-4.45-6.11-9.84-9.16-16.18-9.16c-3.47,0-6.13,0.7-7.98,2.09
				c-1.85,1.39-2.77,3.22-2.77,5.49c0,1.89,0.81,3.56,2.43,5.04c1.62,1.47,3.3,2.55,5.04,3.22c1.73,0.68,4.19,1.55,7.35,2.6
				c0.83,0.23,1.43,0.42,1.81,0.57c13.43,4.3,20.14,10.79,20.14,19.46c0,5.36-2.24,9.9-6.73,13.64c-4.49,3.73-10.84,5.6-19.07,5.6
				c-6.34,0-11.98-1.4-16.92-4.19C-3647.62-1455.46-3651.41-1459.27-3654.05-1464.1z"/>
		</g>
	</g>
</g>
</svg>
